<svg width="14" height="8" viewBox="0 0 14 8" fill="none" xmlns="http://www.w3.org/2000/svg">
<path opacity="0.5" fill-rule="evenodd" clip-rule="evenodd" d="M0.0389471 4.19464C0.0136567 4.13343 0 4.06766 0 3.99987C0 3.93259 0.0136567 3.86682 0.0389471 3.80561C0.0647433 3.74389 0.101668 3.68824 0.148202 3.6422L3.64181 0.147975C3.83958 -0.0493249 4.15925 -0.0493249 4.35703 0.147975C4.5548 0.345781 4.5548 0.666013 4.35703 0.863313L1.72683 3.49398H12.9942C13.2739 3.49398 13.5 3.72062 13.5 3.99987C13.5 4.27963 13.2739 4.50577 12.9942 4.50577H1.72683L4.35703 7.13643C4.5548 7.33424 4.5548 7.65447 4.35703 7.85177C4.25839 7.95093 4.12891 8 3.99942 8C3.86993 8 3.74045 7.95093 3.64181 7.85177L0.148202 4.35805C0.101668 4.31151 0.0647433 4.25636 0.0389471 4.19464" fill="black"/>
</svg>
